<svg width="197" height="59" viewBox="0 0 197 59" fill="none" xmlns="http://www.w3.org/2000/svg">
<rect width="196.812" height="59" rx="29.5" fill="white"/>
<path d="M52.0738 19.9327C51.8672 20.0902 48.2195 22.1099 48.2195 26.6009C48.2195 31.7954 52.8611 33.6331 53 33.6786C52.9786 33.7906 52.2626 36.1953 50.5528 38.6456C49.0281 40.8018 47.4358 42.9545 45.0135 42.9545C42.5912 42.9545 41.9678 41.5719 39.1715 41.5719C36.4464 41.5719 35.4775 43 33.2618 43C31.0461 43 29.5001 41.0048 27.7225 38.5546C25.6636 35.6773 24 31.2073 24 26.9649C24 20.1602 28.5026 16.5514 32.934 16.5514C35.2887 16.5514 37.2514 18.0705 38.7298 18.0705C40.1368 18.0705 42.3312 16.4603 45.01 16.4603C46.0252 16.4603 49.6729 16.5514 52.0738 19.9327V19.9327ZM43.7382 13.5796C44.8461 12.2879 45.6298 10.4957 45.6298 8.70357C45.6298 8.45505 45.6084 8.20302 45.5621 8C43.7596 8.06651 41.6152 9.17962 40.3221 10.6533C39.3068 11.7874 38.3593 13.5796 38.3593 15.3962C38.3593 15.6693 38.4056 15.9423 38.427 16.0298C38.541 16.0508 38.7262 16.0753 38.9114 16.0753C40.5287 16.0753 42.5627 15.0112 43.7382 13.5796Z" fill="#0B0B0E"/>
<path d="M71.8253 21.9624H69V13.2351H71.9148C72.7699 13.2351 73.5043 13.4098 74.1179 13.7592C74.7315 14.1058 75.2017 14.6044 75.5284 15.255C75.858 15.9027 76.0227 16.6797 76.0227 17.5859C76.0227 18.495 75.8565 19.2763 75.5241 19.9297C75.1946 20.5831 74.7173 21.0859 74.0923 21.4382C73.4673 21.7876 72.7116 21.9624 71.8253 21.9624ZM70.3168 20.8118H71.7528C72.4176 20.8118 72.9702 20.6868 73.4105 20.4368C73.8509 20.184 74.1804 19.8189 74.3991 19.3416C74.6179 18.8615 74.7273 18.2763 74.7273 17.5859C74.7273 16.9013 74.6179 16.3203 74.3991 15.843C74.1832 15.3658 73.8608 15.0036 73.4318 14.7564C73.0028 14.5092 72.4702 14.3857 71.8338 14.3857H70.3168V20.8118Z" fill="#0B0B0E"/>
<path d="M80.315 22.0945C79.7013 22.0945 79.1658 21.9538 78.7085 21.6726C78.2511 21.3913 77.896 20.9979 77.6431 20.4922C77.3903 19.9865 77.2638 19.3956 77.2638 18.7195C77.2638 18.0405 77.3903 17.4467 77.6431 16.9382C77.896 16.4297 78.2511 16.0348 78.7085 15.7536C79.1658 15.4723 79.7013 15.3317 80.315 15.3317C80.9286 15.3317 81.4641 15.4723 81.9215 15.7536C82.3789 16.0348 82.734 16.4297 82.9869 16.9382C83.2397 17.4467 83.3661 18.0405 83.3661 18.7195C83.3661 19.3956 83.2397 19.9865 82.9869 20.4922C82.734 20.9979 82.3789 21.3913 81.9215 21.6726C81.4641 21.9538 80.9286 22.0945 80.315 22.0945ZM80.3192 21.0249C80.717 21.0249 81.0465 20.9197 81.3079 20.7095C81.5692 20.4993 81.7624 20.2195 81.8874 19.87C82.0153 19.5206 82.0792 19.1357 82.0792 18.7152C82.0792 18.2976 82.0153 17.9141 81.8874 17.5646C81.7624 17.2124 81.5692 16.9297 81.3079 16.7166C81.0465 16.5036 80.717 16.397 80.3192 16.397C79.9187 16.397 79.5863 16.5036 79.3221 16.7166C79.0607 16.9297 78.8661 17.2124 78.7383 17.5646C78.6133 17.9141 78.5508 18.2976 78.5508 18.7152C78.5508 19.1357 78.6133 19.5206 78.7383 19.87C78.8661 20.2195 79.0607 20.4993 79.3221 20.7095C79.5863 20.9197 79.9187 21.0249 80.3192 21.0249Z" fill="#0B0B0E"/>
<path d="M86.0082 21.9624L84.082 15.4169H85.3988L86.6815 20.2237H86.7454L88.0323 15.4169H89.3491L90.6275 20.2024H90.6914L91.9656 15.4169H93.2823L91.3604 21.9624H90.0607L88.7312 17.2365H88.6332L87.3036 21.9624H86.0082Z" fill="#0B0B0E"/>
<path d="M95.7656 18.076V21.9624H94.4915V15.4169H95.7145V16.4822H95.7955C95.946 16.1357 96.1818 15.8572 96.5028 15.647C96.8267 15.4368 97.2344 15.3317 97.7259 15.3317C98.1719 15.3317 98.5625 15.4254 98.8977 15.6129C99.233 15.7976 99.4929 16.0732 99.6776 16.4396C99.8622 16.8061 99.9545 17.2592 99.9545 17.799V21.9624H98.6804V17.9524C98.6804 17.478 98.5568 17.1072 98.3097 16.8402C98.0625 16.5703 97.723 16.4354 97.2912 16.4354C96.9957 16.4354 96.733 16.4993 96.5028 16.6271C96.2756 16.755 96.0952 16.9425 95.9616 17.1896C95.831 17.434 95.7656 17.7294 95.7656 18.076Z" fill="#0B0B0E"/>
<path d="M102.938 13.2351V21.9624H101.663V13.2351H102.938Z" fill="#0B0B0E"/>
<path d="M107.409 22.0945C106.795 22.0945 106.26 21.9538 105.802 21.6726C105.345 21.3913 104.99 20.9979 104.737 20.4922C104.484 19.9865 104.358 19.3956 104.358 18.7195C104.358 18.0405 104.484 17.4467 104.737 16.9382C104.99 16.4297 105.345 16.0348 105.802 15.7536C106.26 15.4723 106.795 15.3317 107.409 15.3317C108.022 15.3317 108.558 15.4723 109.015 15.7536C109.473 16.0348 109.828 16.4297 110.081 16.9382C110.333 17.4467 110.46 18.0405 110.46 18.7195C110.46 19.3956 110.333 19.9865 110.081 20.4922C109.828 20.9979 109.473 21.3913 109.015 21.6726C108.558 21.9538 108.022 22.0945 107.409 22.0945ZM107.413 21.0249C107.811 21.0249 108.14 20.9197 108.402 20.7095C108.663 20.4993 108.856 20.2195 108.981 19.87C109.109 19.5206 109.173 19.1357 109.173 18.7152C109.173 18.2976 109.109 17.9141 108.981 17.5646C108.856 17.2124 108.663 16.9297 108.402 16.7166C108.14 16.5036 107.811 16.397 107.413 16.397C107.012 16.397 106.68 16.5036 106.416 16.7166C106.154 16.9297 105.96 17.2124 105.832 17.5646C105.707 17.9141 105.645 18.2976 105.645 18.7152C105.645 19.1357 105.707 19.5206 105.832 19.87C105.96 20.2195 106.154 20.4993 106.416 20.7095C106.68 20.9197 107.012 21.0249 107.413 21.0249Z" fill="#0B0B0E"/>
<path d="M113.787 22.1072C113.372 22.1072 112.997 22.0305 112.662 21.8771C112.327 21.7209 112.061 21.495 111.865 21.1996C111.672 20.9041 111.575 20.5419 111.575 20.1129C111.575 19.7436 111.646 19.4396 111.788 19.201C111.93 18.9624 112.122 18.7734 112.364 18.6342C112.605 18.495 112.875 18.3899 113.173 18.3189C113.472 18.2479 113.776 18.1939 114.085 18.157C114.477 18.1115 114.795 18.0746 115.04 18.0462C115.284 18.0149 115.462 17.9652 115.572 17.897C115.683 17.8288 115.739 17.718 115.739 17.5646V17.5348C115.739 17.1626 115.634 16.8743 115.423 16.6697C115.216 16.4652 114.906 16.3629 114.494 16.3629C114.065 16.3629 113.727 16.4581 113.48 16.6484C113.236 16.8359 113.067 17.0447 112.973 17.2749L111.776 17.0021C111.918 16.6044 112.125 16.2834 112.398 16.0391C112.673 15.7919 112.99 15.6129 113.348 15.5021C113.706 15.3885 114.082 15.3317 114.477 15.3317C114.739 15.3317 115.016 15.3629 115.308 15.4254C115.604 15.4851 115.879 15.5959 116.135 15.7578C116.393 15.9197 116.605 16.1513 116.77 16.4524C116.935 16.7507 117.017 17.1385 117.017 17.6158V21.9624H115.773V21.0675H115.722C115.639 21.2322 115.516 21.3942 115.351 21.5533C115.186 21.7124 114.974 21.8445 114.716 21.9496C114.457 22.0547 114.148 22.1072 113.787 22.1072ZM114.064 21.0845C114.416 21.0845 114.717 21.0149 114.967 20.8757C115.22 20.7365 115.412 20.5547 115.543 20.3303C115.676 20.103 115.743 19.8601 115.743 19.6016V18.7578C115.697 18.8033 115.609 18.8459 115.479 18.8857C115.351 18.9226 115.205 18.9553 115.04 18.9837C114.875 19.0092 114.714 19.0334 114.558 19.0561C114.402 19.076 114.271 19.093 114.166 19.1072C113.919 19.1385 113.693 19.1911 113.489 19.2649C113.287 19.3388 113.125 19.4453 113.003 19.5845C112.884 19.7209 112.824 19.9027 112.824 20.13C112.824 20.4453 112.94 20.684 113.173 20.8459C113.406 21.005 113.703 21.0845 114.064 21.0845Z" fill="#0B0B0E"/>
<path d="M121.164 22.0902C120.636 22.0902 120.164 21.9553 119.75 21.6854C119.338 21.4126 119.014 21.0249 118.778 20.522C118.545 20.0163 118.429 19.4098 118.429 18.7024C118.429 17.995 118.547 17.3899 118.782 16.8871C119.021 16.3842 119.348 15.9993 119.762 15.7322C120.177 15.4652 120.647 15.3317 121.173 15.3317C121.579 15.3317 121.906 15.3999 122.153 15.5362C122.403 15.6697 122.596 15.826 122.733 16.005C122.872 16.184 122.98 16.3416 123.056 16.478H123.133V13.2351H124.407V21.9624H123.163V20.9439H123.056C122.98 21.0831 122.869 21.2422 122.724 21.4212C122.582 21.6001 122.386 21.7564 122.136 21.8899C121.886 22.0234 121.562 22.0902 121.164 22.0902ZM121.446 21.0036C121.812 21.0036 122.122 20.907 122.375 20.7138C122.63 20.5178 122.824 20.2465 122.954 19.8999C123.088 19.5533 123.154 19.1499 123.154 18.6896C123.154 18.2351 123.089 17.8374 122.958 17.4965C122.828 17.1555 122.636 16.8899 122.383 16.6996C122.13 16.5092 121.818 16.4141 121.446 16.4141C121.062 16.4141 120.743 16.5135 120.487 16.7124C120.231 16.9112 120.038 17.1825 119.907 17.5263C119.779 17.87 119.716 18.2578 119.716 18.6896C119.716 19.1271 119.781 19.5206 119.912 19.87C120.042 20.2195 120.235 20.4964 120.491 20.701C120.75 20.9027 121.068 21.0036 121.446 21.0036Z" fill="#0B0B0E"/>
<path d="M140.261 17.5987C140.261 18.5305 140.09 19.3317 139.749 20.0021C139.408 20.6697 138.941 21.1839 138.347 21.5447C137.756 21.9027 137.085 22.0817 136.332 22.0817C135.576 22.0817 134.901 21.9027 134.308 21.5447C133.717 21.1839 133.251 20.6683 132.91 19.9979C132.569 19.3274 132.398 18.5277 132.398 17.5987C132.398 16.6669 132.569 15.8672 132.91 15.1996C133.251 14.5291 133.717 14.0149 134.308 13.657C134.901 13.2962 135.576 13.1158 136.332 13.1158C137.085 13.1158 137.756 13.2962 138.347 13.657C138.941 14.0149 139.408 14.5291 139.749 15.1996C140.09 15.8672 140.261 16.6669 140.261 17.5987ZM138.957 17.5987C138.957 16.8885 138.842 16.2905 138.612 15.8047C138.384 15.3161 138.072 14.9467 137.674 14.6967C137.279 14.4439 136.832 14.3175 136.332 14.3175C135.829 14.3175 135.38 14.4439 134.985 14.6967C134.59 14.9467 134.278 15.3161 134.048 15.8047C133.82 16.2905 133.707 16.8885 133.707 17.5987C133.707 18.309 133.82 18.9084 134.048 19.397C134.278 19.8828 134.59 20.2521 134.985 20.505C135.38 20.755 135.829 20.88 136.332 20.88C136.832 20.88 137.279 20.755 137.674 20.505C138.072 20.2521 138.384 19.8828 138.612 19.397C138.842 18.9084 138.957 18.309 138.957 17.5987Z" fill="#0B0B0E"/>
<path d="M143.074 18.076V21.9624H141.8V15.4169H143.023V16.4822H143.104C143.255 16.1357 143.49 15.8572 143.811 15.647C144.135 15.4368 144.543 15.3317 145.034 15.3317C145.48 15.3317 145.871 15.4254 146.206 15.6129C146.542 15.7976 146.801 16.0732 146.986 16.4396C147.171 16.8061 147.263 17.2592 147.263 17.799V21.9624H145.989V17.9524C145.989 17.478 145.865 17.1072 145.618 16.8402C145.371 16.5703 145.032 16.4354 144.6 16.4354C144.304 16.4354 144.042 16.4993 143.811 16.6271C143.584 16.755 143.404 16.9425 143.27 17.1896C143.14 17.434 143.074 17.7294 143.074 18.076Z" fill="#0B0B0E"/>
<path d="M151.82 14.3686V13.2351H158.574V14.3686H155.851V21.9624H154.538V14.3686H151.82Z" fill="#0B0B0E"/>
<path d="M161.238 18.076V21.9624H159.964V13.2351H161.221V16.4822H161.302C161.456 16.13 161.69 15.8501 162.005 15.6428C162.321 15.4354 162.733 15.3317 163.241 15.3317C163.69 15.3317 164.082 15.424 164.417 15.6087C164.755 15.7933 165.017 16.0689 165.201 16.4354C165.389 16.799 165.483 17.2536 165.483 17.799V21.9624H164.208V17.9524C164.208 17.4723 164.085 17.1001 163.838 16.8359C163.591 16.5689 163.247 16.4354 162.806 16.4354C162.505 16.4354 162.235 16.4993 161.997 16.6271C161.761 16.755 161.575 16.9425 161.439 17.1896C161.305 17.434 161.238 17.7294 161.238 18.076Z" fill="#0B0B0E"/>
<path d="M170.004 22.0945C169.359 22.0945 168.804 21.9567 168.338 21.6811C167.875 21.4027 167.517 21.0121 167.264 20.5092C167.014 20.0036 166.889 19.4112 166.889 18.7322C166.889 18.0618 167.014 17.4709 167.264 16.9595C167.517 16.4482 167.869 16.049 168.321 15.7621C168.775 15.4751 169.306 15.3317 169.914 15.3317C170.284 15.3317 170.642 15.3928 170.988 15.5149C171.335 15.6371 171.646 15.8288 171.922 16.0902C172.197 16.3516 172.414 16.6911 172.574 17.1087C172.733 17.5234 172.812 18.0277 172.812 18.6215V19.0732H167.609V18.1186H171.564C171.564 17.7834 171.495 17.4865 171.359 17.228C171.223 16.9666 171.031 16.7607 170.784 16.6101C170.539 16.4595 170.252 16.3842 169.923 16.3842C169.565 16.3842 169.252 16.4723 168.985 16.6484C168.721 16.8217 168.517 17.049 168.372 17.3303C168.23 17.6087 168.159 17.9112 168.159 18.2379V18.9837C168.159 19.4212 168.235 19.7933 168.389 20.1001C168.545 20.407 168.762 20.6413 169.041 20.8033C169.319 20.9624 169.645 21.0419 170.017 21.0419C170.258 21.0419 170.478 21.0078 170.677 20.9396C170.876 20.8686 171.048 20.7635 171.193 20.6243C171.338 20.4851 171.449 20.3132 171.525 20.1087L172.731 20.326C172.635 20.6811 172.461 20.9922 172.211 21.2592C171.964 21.5234 171.653 21.7294 171.278 21.8771C170.906 22.022 170.481 22.0945 170.004 22.0945Z" fill="#0B0B0E"/>
<path d="M72.4602 41.5888H69L74.2724 26.316H78.4336L83.6985 41.5888H80.2383L76.4126 29.8061H76.2933L72.4602 41.5888ZM72.244 35.5856H80.4173V38.1062H72.244V35.5856Z" fill="#0B0B0E"/>
<path d="M85.4771 45.8842V30.1342H88.6092V32.0582H88.7509C88.8901 31.75 89.0914 31.4368 89.3549 31.1186C89.6234 30.7954 89.9714 30.527 90.399 30.3132C90.8315 30.0945 91.3684 29.9851 92.0098 29.9851C92.845 29.9851 93.6156 30.2038 94.3216 30.6413C95.0275 31.0739 95.5918 31.7276 96.0144 32.6026C96.437 33.4727 96.6483 34.5639 96.6483 35.8764C96.6483 37.1541 96.4419 38.2329 96.0293 39.1129C95.6216 39.9879 95.0648 40.6516 94.3588 41.104C93.6578 41.5515 92.8723 41.7752 92.0023 41.7752C91.3858 41.7752 90.8613 41.6733 90.4288 41.4695C90.0012 41.2656 89.6507 41.0096 89.3773 40.7013C89.1039 40.3881 88.8951 40.0724 88.7509 39.7543H88.6539V45.8842H85.4771ZM88.5868 35.8615C88.5868 36.5426 88.6813 37.1367 88.8702 37.6438C89.0591 38.1509 89.3326 38.5462 89.6905 38.8295C90.0485 39.1079 90.4835 39.2472 90.9956 39.2472C91.5126 39.2472 91.9501 39.1055 92.3081 38.8221C92.666 38.5337 92.937 38.136 93.1209 37.6289C93.3098 37.1168 93.4043 36.5277 93.4043 35.8615C93.4043 35.2003 93.3123 34.6186 93.1284 34.1165C92.9444 33.6143 92.6735 33.2216 92.3155 32.9382C91.9576 32.6548 91.5176 32.5131 90.9956 32.5131C90.4785 32.5131 90.041 32.6499 89.6831 32.9233C89.3301 33.1967 89.0591 33.5845 88.8702 34.0866C88.6813 34.5888 88.5868 35.1804 88.5868 35.8615Z" fill="#0B0B0E"/>
<path d="M98.7662 45.8842V30.1342H101.898V32.0582H102.04C102.179 31.75 102.381 31.4368 102.644 31.1186C102.912 30.7954 103.26 30.527 103.688 30.3132C104.121 30.0945 104.657 29.9851 105.299 29.9851C106.134 29.9851 106.905 30.2038 107.611 30.6413C108.317 31.0739 108.881 31.7276 109.303 32.6026C109.726 33.4727 109.937 34.5639 109.937 35.8764C109.937 37.1541 109.731 38.2329 109.318 39.1129C108.911 39.9879 108.354 40.6516 107.648 41.104C106.947 41.5515 106.161 41.7752 105.291 41.7752C104.675 41.7752 104.15 41.6733 103.718 41.4695C103.29 41.2656 102.94 41.0096 102.666 40.7013C102.393 40.3881 102.184 40.0724 102.04 39.7543H101.943V45.8842H98.7662ZM101.876 35.8615C101.876 36.5426 101.97 37.1367 102.159 37.6438C102.348 38.1509 102.622 38.5462 102.98 38.8295C103.338 39.1079 103.773 39.2472 104.285 39.2472C104.802 39.2472 105.239 39.1055 105.597 38.8221C105.955 38.5337 106.226 38.136 106.41 37.6289C106.599 37.1168 106.693 36.5277 106.693 35.8615C106.693 35.2003 106.601 34.6186 106.417 34.1165C106.233 33.6143 105.963 33.2216 105.605 32.9382C105.247 32.6548 104.807 32.5131 104.285 32.5131C103.768 32.5131 103.33 32.6499 102.972 32.9233C102.619 33.1967 102.348 33.5845 102.159 34.0866C101.97 34.5888 101.876 35.1804 101.876 35.8615Z" fill="#0B0B0E"/>
<path d="M125.26 30.7084C125.201 30.1069 124.945 29.6396 124.492 29.3065C124.04 28.9734 123.426 28.8068 122.65 28.8068C122.123 28.8068 121.678 28.8814 121.315 29.0305C120.953 29.1747 120.674 29.3761 120.48 29.6346C120.291 29.8931 120.197 30.1864 120.197 30.5146C120.187 30.788 120.244 31.0266 120.368 31.2305C120.498 31.4343 120.674 31.6108 120.898 31.7599C121.122 31.9041 121.38 32.0309 121.673 32.1403C121.967 32.2447 122.28 32.3342 122.613 32.4087L123.985 32.7369C124.651 32.886 125.263 33.0849 125.82 33.3334C126.377 33.582 126.859 33.8878 127.266 34.2507C127.674 34.6136 127.99 35.0412 128.214 35.5334C128.442 36.0256 128.559 36.5898 128.564 37.2262C128.559 38.1609 128.32 38.9712 127.848 39.6573C127.381 40.3384 126.705 40.8679 125.82 41.2457C124.94 41.6186 123.878 41.805 122.635 41.805C121.402 41.805 120.329 41.6161 119.414 41.2383C118.504 40.8604 117.793 40.3011 117.281 39.5604C116.774 38.8146 116.508 37.8924 116.483 36.7937H119.608C119.642 37.3057 119.789 37.7333 120.048 38.0763C120.311 38.4144 120.662 38.6705 121.099 38.8445C121.542 39.0135 122.041 39.098 122.598 39.098C123.145 39.098 123.62 39.0185 124.022 38.8594C124.43 38.7003 124.746 38.479 124.97 38.1957C125.193 37.9123 125.305 37.5866 125.305 37.2187C125.305 36.8757 125.203 36.5874 124.999 36.3537C124.801 36.12 124.507 35.9212 124.119 35.7571C123.737 35.593 123.267 35.4439 122.71 35.3097L121.047 34.892C119.759 34.5788 118.743 34.0891 117.997 33.4229C117.251 32.7567 116.881 31.8594 116.886 30.7308C116.881 29.8061 117.127 28.9982 117.624 28.3072C118.126 27.6161 118.815 27.0767 119.69 26.6889C120.565 26.3011 121.559 26.1072 122.673 26.1072C123.806 26.1072 124.796 26.3011 125.641 26.6889C126.491 27.0767 127.152 27.6161 127.624 28.3072C128.097 28.9982 128.34 29.7986 128.355 30.7084H125.26Z" fill="#0B0B0E"/>
<path d="M136.769 30.1342V32.5206H129.871V30.1342H136.769ZM131.437 27.3899H134.614V38.0689C134.614 38.3622 134.659 38.5909 134.748 38.755C134.838 38.9141 134.962 39.0259 135.121 39.0905C135.285 39.1552 135.474 39.1875 135.688 39.1875C135.837 39.1875 135.986 39.1751 136.135 39.1502C136.284 39.1204 136.399 39.098 136.478 39.0831L136.978 41.4471C136.819 41.4968 136.595 41.554 136.307 41.6186C136.018 41.6882 135.668 41.7305 135.255 41.7454C134.49 41.7752 133.818 41.6733 133.242 41.4396C132.67 41.206 132.225 40.843 131.907 40.3508C131.589 39.8587 131.432 39.2372 131.437 38.4865V27.3899Z" fill="#0B0B0E"/>
<path d="M143.891 41.8125C142.732 41.8125 141.731 41.5664 140.885 41.0742C140.045 40.5771 139.396 39.886 138.939 39.0011C138.482 38.1111 138.253 37.0795 138.253 35.9062C138.253 34.723 138.482 33.6889 138.939 32.804C139.396 31.9141 140.045 31.223 140.885 30.7308C141.731 30.2337 142.732 29.9851 143.891 29.9851C145.049 29.9851 146.048 30.2337 146.889 30.7308C147.734 31.223 148.385 31.9141 148.843 32.804C149.3 33.6889 149.529 34.723 149.529 35.9062C149.529 37.0795 149.3 38.1111 148.843 39.0011C148.385 39.886 147.734 40.5771 146.889 41.0742C146.048 41.5664 145.049 41.8125 143.891 41.8125ZM143.906 39.3516C144.433 39.3516 144.873 39.2024 145.226 38.9041C145.579 38.6008 145.845 38.1882 146.024 37.6662C146.208 37.1442 146.3 36.5501 146.3 35.8839C146.3 35.2177 146.208 34.6236 146.024 34.1016C145.845 33.5795 145.579 33.1669 145.226 32.8636C144.873 32.5604 144.433 32.4087 143.906 32.4087C143.374 32.4087 142.926 32.5604 142.563 32.8636C142.205 33.1669 141.934 33.5795 141.751 34.1016C141.572 34.6236 141.482 35.2177 141.482 35.8839C141.482 36.5501 141.572 37.1442 141.751 37.6662C141.934 38.1882 142.205 38.6008 142.563 38.9041C142.926 39.2024 143.374 39.3516 143.906 39.3516Z" fill="#0B0B0E"/>
<path d="M151.594 41.5888V30.1342H154.674V32.1328H154.794C155.002 31.4219 155.353 30.8849 155.845 30.522C156.337 30.1541 156.904 29.9702 157.545 29.9702C157.704 29.9702 157.876 29.9801 158.06 30C158.244 30.0199 158.405 30.0472 158.545 30.082V32.9009C158.395 32.8562 158.189 32.8164 157.926 32.7816C157.662 32.7468 157.421 32.7294 157.202 32.7294C156.735 32.7294 156.317 32.8313 155.949 33.0352C155.586 33.234 155.298 33.5124 155.084 33.8704C154.876 34.2283 154.771 34.641 154.771 35.1083V41.5888H151.594Z" fill="#0B0B0E"/>
<path d="M164.874 41.8125C163.696 41.8125 162.682 41.5739 161.831 41.0966C160.986 40.6143 160.335 39.9332 159.878 39.0533C159.42 38.1683 159.191 37.1218 159.191 35.9137C159.191 34.7354 159.42 33.7013 159.878 32.8114C160.335 31.9215 160.979 31.228 161.809 30.7308C162.644 30.2337 163.624 29.9851 164.747 29.9851C165.503 29.9851 166.206 30.1069 166.858 30.3505C167.514 30.5891 168.086 30.9496 168.573 31.4318C169.065 31.9141 169.448 32.5206 169.721 33.2514C169.995 33.9773 170.131 34.8274 170.131 35.8018V36.6744H160.459V34.7056H167.141C167.141 34.2482 167.042 33.843 166.843 33.4901C166.644 33.1371 166.368 32.8611 166.015 32.6623C165.667 32.4584 165.262 32.3565 164.799 32.3565C164.317 32.3565 163.89 32.4684 163.517 32.6921C163.149 32.9109 162.861 33.2067 162.652 33.5795C162.443 33.9474 162.336 34.3576 162.331 34.81V36.6818C162.331 37.2486 162.435 37.7383 162.644 38.1509C162.858 38.5636 163.159 38.8817 163.547 39.1055C163.934 39.3292 164.394 39.441 164.926 39.441C165.279 39.441 165.602 39.3913 165.896 39.2919C166.189 39.1925 166.44 39.0433 166.649 38.8445C166.858 38.6456 167.017 38.402 167.126 38.1136L170.064 38.3075C169.915 39.0135 169.609 39.63 169.147 40.157C168.69 40.679 168.098 41.0866 167.372 41.38C166.651 41.6683 165.819 41.8125 164.874 41.8125Z" fill="#0B0B0E"/>
</svg>
